<?xml version="1.0" standalone="no"?>
<!DOCTYPE svg PUBLIC "-//W3C//DTD SVG 20010904//EN"
 "http://www.w3.org/TR/2001/REC-SVG-20010904/DTD/svg10.dtd">
<svg version="1.0" xmlns="http://www.w3.org/2000/svg"
 width="1024.000000pt" height="1024.000000pt" viewBox="0 0 1024.000000 1024.000000"
 preserveAspectRatio="xMidYMid meet">
<metadata>
Created by potrace 1.16, written by Peter Selinger 2001-2019
</metadata>
<g transform="translate(0.000000,1024.000000) scale(0.100000,-0.100000)"
fill="#000000" stroke="none">
<path d="M5990 9169 c-44 -26 -93 -88 -145 -181 l-41 -73 -59 0 -60 0 -3 53
-3 52 -32 -30 c-18 -16 -37 -30 -44 -30 -7 0 -16 -7 -20 -15 -9 -15 -78 -28
-218 -44 -36 -3 -55 -9 -47 -14 14 -10 17 -117 2 -117 -5 0 -10 -7 -10 -15 0
-21 -107 -21 -137 0 -37 26 -71 4 -136 -89 -16 -23 -25 -26 -73 -26 l-55 0 3
93 3 94 -32 -14 c-18 -7 -46 -13 -63 -13 -19 0 -30 -5 -30 -14 0 -21 -192 -37
-205 -16 -14 23 -25 7 -25 -40 0 -38 -4 -50 -15 -50 -8 0 -15 -4 -15 -10 0 -5
-24 -10 -53 -10 -48 0 -56 3 -75 30 -15 19 -31 30 -47 30 -14 0 -25 4 -25 9 0
5 -13 12 -30 16 -16 4 -30 11 -30 16 0 5 -9 9 -19 9 -11 0 -23 5 -26 10 -3 6
-15 10 -26 10 -10 0 -19 4 -19 8 0 13 -48 32 -80 32 -27 0 -30 -3 -30 -34 0
-19 -3 -41 -6 -50 -5 -13 1 -16 30 -16 l36 0 0 -45 c0 -25 5 -45 10 -45 6 0
10 -25 10 -55 l0 -55 -55 0 -55 0 0 45 c0 25 -4 45 -10 45 -5 0 -10 18 -10 40
0 31 -4 40 -17 40 -21 0 -43 -42 -43 -82 0 -24 -4 -28 -30 -28 -34 0 -35 -5
-16 -80 7 -30 17 -72 20 -92 4 -21 11 -38 16 -38 6 0 10 -11 10 -25 0 -49 27
-65 107 -65 39 0 75 -4 78 -10 6 -9 50 -31 87 -44 35 -11 123 34 191 98 15 14
35 26 43 26 8 0 14 10 14 25 0 24 3 25 54 25 l55 0 3 -48 3 -49 96 28 c53 15
138 36 188 46 l91 19 -35 34 c-19 19 -35 42 -35 52 0 10 -4 18 -10 18 -5 0
-10 25 -10 56 l0 56 65 -4 c56 -3 69 -8 97 -35 18 -18 49 -39 68 -47 31 -13
38 -12 67 2 17 10 47 32 67 50 31 28 42 32 91 32 l55 0 0 -57 c0 -41 -6 -68
-21 -92 l-21 -34 76 6 c42 4 147 10 233 14 116 5 152 9 135 16 -19 9 -22 18
-22 64 l0 53 55 0 c30 0 63 -4 73 -9 9 -5 39 -17 66 -26 42 -15 54 -16 90 -4
84 27 115 69 50 69 l-36 0 4 95 c2 52 0 95 -4 95 -12 0 -9 74 5 165 15 92 12
155 -9 155 -9 0 -14 11 -14 30 0 35 -12 37 -60 9z"/>
<path d="M5690 7335 c0 -47 -23 -57 -116 -53 -70 3 -74 2 -68 -17 10 -36 59
-99 102 -132 37 -28 46 -31 67 -21 36 16 79 84 78 122 -1 29 -46 136 -58 136
-3 0 -5 -16 -5 -35z"/>
<path d="M7055 6672 c-16 -8 -36 -21 -43 -29 -7 -7 -19 -13 -26 -13 -7 0 -23
-10 -36 -22 -13 -13 -33 -28 -45 -33 -11 -6 -21 -23 -23 -38 -4 -30 12 -35 37
-13 9 7 37 21 64 31 26 10 47 21 47 26 0 4 9 10 19 14 10 3 21 14 24 24 3 13
18 19 57 24 67 8 81 21 39 36 -42 14 -77 12 -114 -7z"/>
<path d="M7350 6653 c0 -10 3 -42 6 -70 l7 -53 48 0 49 0 0 -55 0 -55 -45 0
c-25 0 -45 -4 -45 -10 0 -5 -6 -10 -13 -10 -8 0 -19 -11 -26 -24 -12 -21 -23
-25 -95 -31 -216 -18 -344 -55 -440 -129 -26 -20 -54 -36 -62 -36 -8 0 -14 -4
-14 -10 0 -6 -26 -10 -59 -10 l-60 0 -3 47 -3 47 -29 -27 c-16 -15 -32 -27
-36 -27 -4 0 -26 -18 -49 -40 -24 -23 -56 -43 -72 -47 -16 -3 -29 -11 -29 -17
-1 -14 -109 -99 -189 -147 -45 -27 -81 -40 -141 -50 -44 -7 -80 -16 -80 -21 0
-4 -10 -8 -22 -8 -13 0 -34 -9 -48 -20 -14 -11 -34 -20 -46 -20 -11 0 -32 -6
-47 -12 -24 -12 -27 -18 -27 -64 0 -56 -7 -63 -63 -65 -28 -1 -27 -2 12 -10
24 -4 49 -16 57 -26 8 -11 13 -13 14 -5 0 8 19 12 59 12 l60 0 3 -32 c3 -27 8
-33 35 -39 22 -4 33 -2 37 7 4 10 28 14 88 15 78 1 228 14 201 17 -9 1 -13 20
-13 57 l0 55 85 0 c50 0 85 -4 85 -10 0 -6 27 -10 62 -10 34 0 95 -8 135 -17
l73 -17 0 -54 0 -54 -167 5 c-93 2 -178 8 -190 12 -19 6 -23 4 -23 -12 0 -19
10 -21 122 -27 67 -4 140 -14 162 -22 23 -7 53 -14 69 -14 26 0 27 -2 27 -55
l0 -55 -104 0 c-66 0 -119 5 -146 15 -23 8 -73 15 -109 15 -37 0 -71 4 -76 9
-6 5 -130 14 -277 20 -146 7 -324 19 -395 26 -182 21 -193 20 -193 -9 0 -13
-6 -27 -12 -29 -7 -3 2 -6 20 -6 17 -1 32 -5 32 -11 0 -5 19 -10 43 -10 23 0
51 -6 62 -14 13 -8 65 -16 140 -20 404 -23 1264 -50 1311 -41 20 3 34 13 37
24 3 15 -4 21 -37 32 -22 7 -45 16 -51 20 -5 4 -29 12 -52 18 l-43 12 0 54 0
55 95 0 c80 0 93 2 89 15 -4 8 -14 15 -24 15 -29 0 -50 11 -50 26 0 7 -11 16
-25 20 -23 6 -25 11 -25 61 l0 55 208 -6 c114 -4 253 -9 310 -12 67 -4 102 -2
102 5 0 5 22 32 49 58 43 42 50 56 59 108 6 33 20 94 31 135 18 62 20 90 15
164 -5 66 -4 90 6 96 15 9 7 52 -15 74 -8 8 -15 21 -15 28 0 8 -13 29 -30 48
-16 19 -29 41 -30 47 0 7 -13 19 -29 28 -16 8 -32 24 -36 35 -3 11 -12 20 -20
20 -7 0 -20 6 -27 13 -26 23 -76 47 -102 47 -14 0 -26 5 -26 10 0 6 -4 10 -10
10 -5 0 -10 -8 -10 -17z"/>
</g>
</svg>
